<mxfile host="app.diagrams.net" modified="2024-04-17T22:38:01.989Z" agent="Mozilla/5.0 (Macintosh; Intel Mac OS X 10_15_7) AppleWebKit/537.36 (KHTML, like Gecko) Chrome/124.0.0.0 Safari/537.36" etag="HJbk6FaNTemqGIIM48WN" version="24.2.5" type="github">
  <diagram name="Page-1" id="KtaaiM5RCvJgxlkwDIS9">
    <mxGraphModel dx="648" dy="450" grid="1" gridSize="10" guides="1" tooltips="1" connect="1" arrows="1" fold="1" page="1" pageScale="1" pageWidth="850" pageHeight="1100" math="0" shadow="0">
      <root>
        <mxCell id="0" />
        <mxCell id="1" parent="0" />
        <mxCell id="Dn9yDmMurxADyDGAKcIU-10" value="" style="edgeStyle=orthogonalEdgeStyle;rounded=0;orthogonalLoop=1;jettySize=auto;html=1;shape=link;" edge="1" parent="1" source="Dn9yDmMurxADyDGAKcIU-1" target="Dn9yDmMurxADyDGAKcIU-2">
          <mxGeometry relative="1" as="geometry" />
        </mxCell>
        <mxCell id="Dn9yDmMurxADyDGAKcIU-11" value="1. Send Events" style="edgeLabel;html=1;align=center;verticalAlign=middle;resizable=0;points=[];" vertex="1" connectable="0" parent="Dn9yDmMurxADyDGAKcIU-10">
          <mxGeometry x="-0.1831" y="-4" relative="1" as="geometry">
            <mxPoint as="offset" />
          </mxGeometry>
        </mxCell>
        <mxCell id="Dn9yDmMurxADyDGAKcIU-1" value="Wazuh Agent" style="fontColor=#0066CC;verticalAlign=top;verticalLabelPosition=bottom;labelPosition=center;align=center;html=1;outlineConnect=0;fillColor=#CCCCCC;strokeColor=#6881B3;gradientColor=none;gradientDirection=north;strokeWidth=2;shape=mxgraph.networks.pc;" vertex="1" parent="1">
          <mxGeometry x="375" y="330" width="100" height="70" as="geometry" />
        </mxCell>
        <mxCell id="Dn9yDmMurxADyDGAKcIU-12" value="" style="edgeStyle=orthogonalEdgeStyle;rounded=0;orthogonalLoop=1;jettySize=auto;html=1;shape=link;" edge="1" parent="1" source="Dn9yDmMurxADyDGAKcIU-2" target="Dn9yDmMurxADyDGAKcIU-3">
          <mxGeometry relative="1" as="geometry" />
        </mxCell>
        <mxCell id="Dn9yDmMurxADyDGAKcIU-2" value="Router" style="sketch=0;aspect=fixed;pointerEvents=1;shadow=0;dashed=0;html=1;strokeColor=#82b366;labelPosition=center;verticalLabelPosition=bottom;verticalAlign=top;align=center;fillColor=#d5e8d4;shape=mxgraph.mscae.enterprise.router" vertex="1" parent="1">
          <mxGeometry x="400" y="220" width="50" height="39" as="geometry" />
        </mxCell>
        <mxCell id="Dn9yDmMurxADyDGAKcIU-13" style="edgeStyle=orthogonalEdgeStyle;rounded=0;orthogonalLoop=1;jettySize=auto;html=1;shape=link;" edge="1" parent="1" source="Dn9yDmMurxADyDGAKcIU-3" target="Dn9yDmMurxADyDGAKcIU-6">
          <mxGeometry relative="1" as="geometry" />
        </mxCell>
        <mxCell id="Dn9yDmMurxADyDGAKcIU-14" value="2. Receive Events" style="edgeLabel;html=1;align=center;verticalAlign=middle;resizable=0;points=[];" vertex="1" connectable="0" parent="Dn9yDmMurxADyDGAKcIU-13">
          <mxGeometry x="0.1733" y="-5" relative="1" as="geometry">
            <mxPoint as="offset" />
          </mxGeometry>
        </mxCell>
        <mxCell id="Dn9yDmMurxADyDGAKcIU-3" value="Internet" style="image;aspect=fixed;perimeter=ellipsePerimeter;html=1;align=center;shadow=0;dashed=0;spacingTop=3;image=img/lib/active_directory/internet_cloud.svg;" vertex="1" parent="1">
          <mxGeometry x="400" y="111.5" width="50" height="31.5" as="geometry" />
        </mxCell>
        <mxCell id="Dn9yDmMurxADyDGAKcIU-18" value="" style="edgeStyle=orthogonalEdgeStyle;rounded=0;orthogonalLoop=1;jettySize=auto;html=1;fillColor=#008a00;strokeColor=#005700;shape=link;" edge="1" parent="1" source="Dn9yDmMurxADyDGAKcIU-4" target="Dn9yDmMurxADyDGAKcIU-3">
          <mxGeometry relative="1" as="geometry">
            <Array as="points">
              <mxPoint x="420" y="70" />
              <mxPoint x="420" y="70" />
            </Array>
          </mxGeometry>
        </mxCell>
        <mxCell id="Dn9yDmMurxADyDGAKcIU-19" value="4. Enrich IOCS" style="edgeLabel;html=1;align=center;verticalAlign=middle;resizable=0;points=[];" vertex="1" connectable="0" parent="Dn9yDmMurxADyDGAKcIU-18">
          <mxGeometry x="0.1833" relative="1" as="geometry">
            <mxPoint y="4" as="offset" />
          </mxGeometry>
        </mxCell>
        <mxCell id="Dn9yDmMurxADyDGAKcIU-20" style="rounded=0;orthogonalLoop=1;jettySize=auto;html=1;entryX=0.5;entryY=0;entryDx=0;entryDy=0;shape=link;fillColor=#1ba1e2;strokeColor=#006EAF;" edge="1" parent="1" source="Dn9yDmMurxADyDGAKcIU-4" target="Dn9yDmMurxADyDGAKcIU-5">
          <mxGeometry relative="1" as="geometry" />
        </mxCell>
        <mxCell id="Dn9yDmMurxADyDGAKcIU-21" value="5. Send Alerts" style="edgeLabel;html=1;align=center;verticalAlign=middle;resizable=0;points=[];" vertex="1" connectable="0" parent="Dn9yDmMurxADyDGAKcIU-20">
          <mxGeometry x="0.151" y="1" relative="1" as="geometry">
            <mxPoint x="-9" y="-4" as="offset" />
          </mxGeometry>
        </mxCell>
        <mxCell id="Dn9yDmMurxADyDGAKcIU-22" style="rounded=0;orthogonalLoop=1;jettySize=auto;html=1;entryX=1;entryY=0;entryDx=0;entryDy=0;fillColor=#f8cecc;strokeColor=#b85450;shape=link;exitX=1;exitY=1;exitDx=0;exitDy=0;gradientColor=#ea6b66;" edge="1" parent="1" source="Dn9yDmMurxADyDGAKcIU-4" target="Dn9yDmMurxADyDGAKcIU-3">
          <mxGeometry relative="1" as="geometry">
            <Array as="points">
              <mxPoint x="450" y="70" />
            </Array>
          </mxGeometry>
        </mxCell>
        <mxCell id="Dn9yDmMurxADyDGAKcIU-24" value="6. Send Email" style="edgeLabel;html=1;align=center;verticalAlign=middle;resizable=0;points=[];" vertex="1" connectable="0" parent="Dn9yDmMurxADyDGAKcIU-22">
          <mxGeometry x="-0.1252" relative="1" as="geometry">
            <mxPoint as="offset" />
          </mxGeometry>
        </mxCell>
        <mxCell id="Dn9yDmMurxADyDGAKcIU-4" value="Shuffle" style="image;aspect=fixed;perimeter=ellipsePerimeter;html=1;align=center;shadow=0;dashed=0;spacingTop=3;image=img/lib/active_directory/internet_cloud.svg;" vertex="1" parent="1">
          <mxGeometry x="400" width="50" height="31.5" as="geometry" />
        </mxCell>
        <mxCell id="Dn9yDmMurxADyDGAKcIU-5" value="Wazuh Manager" style="image;aspect=fixed;perimeter=ellipsePerimeter;html=1;align=center;shadow=0;dashed=0;spacingTop=3;image=img/lib/active_directory/internet_cloud.svg;" vertex="1" parent="1">
          <mxGeometry x="600" y="111.5" width="50" height="31.5" as="geometry" />
        </mxCell>
        <mxCell id="Dn9yDmMurxADyDGAKcIU-6" value="The Hive" style="image;aspect=fixed;perimeter=ellipsePerimeter;html=1;align=center;shadow=0;dashed=0;spacingTop=3;image=img/lib/active_directory/internet_cloud.svg;" vertex="1" parent="1">
          <mxGeometry x="200" y="111.5" width="50" height="31.5" as="geometry" />
        </mxCell>
        <mxCell id="Dn9yDmMurxADyDGAKcIU-26" style="rounded=0;orthogonalLoop=1;jettySize=auto;html=1;entryX=1;entryY=0.75;entryDx=0;entryDy=0;shape=link;strokeColor=#FF0000;exitX=0;exitY=0.5;exitDx=0;exitDy=0;exitPerimeter=0;" edge="1" parent="1" source="Dn9yDmMurxADyDGAKcIU-8">
          <mxGeometry relative="1" as="geometry">
            <mxPoint x="552.15" y="253.1" as="sourcePoint" />
            <mxPoint x="429.99528871550626" y="142.99668084034178" as="targetPoint" />
            <Array as="points">
              <mxPoint x="482.15" y="209.35" />
            </Array>
          </mxGeometry>
        </mxCell>
        <mxCell id="Dn9yDmMurxADyDGAKcIU-8" value="SOC Analyst" style="fontColor=#0066CC;verticalAlign=top;verticalLabelPosition=bottom;labelPosition=center;align=center;html=1;outlineConnect=0;fillColor=#CCCCCC;strokeColor=#6881B3;gradientColor=none;gradientDirection=north;strokeWidth=2;shape=mxgraph.networks.pc;" vertex="1" parent="1">
          <mxGeometry x="570" y="240" width="100" height="70" as="geometry" />
        </mxCell>
        <mxCell id="Dn9yDmMurxADyDGAKcIU-16" style="rounded=0;orthogonalLoop=1;jettySize=auto;html=1;entryX=0.2;entryY=0.635;entryDx=0;entryDy=0;entryPerimeter=0;shape=link;fillColor=#1ba1e2;strokeColor=#006EAF;" edge="1" parent="1" source="Dn9yDmMurxADyDGAKcIU-6" target="Dn9yDmMurxADyDGAKcIU-4">
          <mxGeometry relative="1" as="geometry" />
        </mxCell>
        <mxCell id="Dn9yDmMurxADyDGAKcIU-17" value="3. Send Alerts" style="edgeLabel;html=1;align=center;verticalAlign=middle;resizable=0;points=[];" vertex="1" connectable="0" parent="Dn9yDmMurxADyDGAKcIU-16">
          <mxGeometry x="0.2145" y="3" relative="1" as="geometry">
            <mxPoint x="-24" y="12" as="offset" />
          </mxGeometry>
        </mxCell>
        <mxCell id="Dn9yDmMurxADyDGAKcIU-23" style="rounded=0;orthogonalLoop=1;jettySize=auto;html=1;entryX=0;entryY=0;entryDx=0;entryDy=0;entryPerimeter=0;fillColor=#f8cecc;gradientColor=#ea6b66;strokeColor=#b85450;shape=link;" edge="1" parent="1" source="Dn9yDmMurxADyDGAKcIU-3" target="Dn9yDmMurxADyDGAKcIU-8">
          <mxGeometry relative="1" as="geometry" />
        </mxCell>
        <mxCell id="Dn9yDmMurxADyDGAKcIU-25" value="7. Send &amp;amp; Receive" style="edgeLabel;html=1;align=center;verticalAlign=middle;resizable=0;points=[];" vertex="1" connectable="0" parent="Dn9yDmMurxADyDGAKcIU-23">
          <mxGeometry x="-0.0319" y="-1" relative="1" as="geometry">
            <mxPoint as="offset" />
          </mxGeometry>
        </mxCell>
      </root>
    </mxGraphModel>
  </diagram>
</mxfile>
